<?xml version="1.0" encoding="UTF-8" standalone="no"?>
<!DOCTYPE svg PUBLIC "-//W3C//DTD SVG 1.1//EN" "http://www.w3.org/Graphics/SVG/1.1/DTD/svg11.dtd">
<svg width="100%" height="100%" viewBox="0 0 591 591" version="1.1" xmlns="http://www.w3.org/2000/svg" xmlns:xlink="http://www.w3.org/1999/xlink" xml:space="preserve" xmlns:serif="http://www.serif.com/" style="fill-rule:evenodd;clip-rule:evenodd;stroke-linejoin:round;stroke-miterlimit:2;">
    <g transform="matrix(1.12397,0,0,1.12397,40.9933,-334.523)">
        <g transform="matrix(0.236712,0,0,0.236712,394.75,539.474)">
            <path d="M0,-774.877L-722.659,-452.655C-749.807,-440.55 -760.138,-407.346 -744.649,-381.976L-518.324,-11.248C-499.934,18.877 -456.762,20.464 -436.209,-8.231L60.126,-701.18C89.387,-742.033 45.896,-795.341 0,-774.877" style="fill-rule:nonzero;"/>
        </g>
        <g transform="matrix(0.236712,0,0,0.236712,233.098,386.871)">
            <path d="M0,494.232L-161.623,226.541C-166.24,218.895 -172.849,212.647 -180.741,208.466L-737.893,-86.652C-785.663,-111.955 -833.432,-52.997 -798.77,-11.514L-440.772,416.928C-435.895,422.767 -429.73,427.397 -422.763,430.454L-77.178,582.123C-22.346,606.187 30.95,545.494 0,494.232" style="fill-rule:nonzero;"/>
        </g>
        <g transform="matrix(0.236712,0,0,0.236712,131.068,597.998)">
            <path d="M0,-318.276L0,-0.001C0,35.637 36.663,59.489 69.243,45.047L428.255,-114.089C467.331,-131.41 467.331,-186.863 428.255,-204.184L69.243,-363.323C36.663,-377.765 0,-353.913 0,-318.276" style="fill-rule:nonzero;"/>
        </g>
        <g transform="matrix(0.236712,0,0,0.236712,394.775,581.108)">
            <path d="M0,775.231L-722.764,452.962C-749.911,440.858 -760.242,407.653 -744.754,382.284L-518.242,11.249C-499.848,-18.881 -456.665,-20.461 -436.117,8.245L60.135,701.547C89.379,742.402 45.889,795.692 0,775.231" style="fill-rule:nonzero;"/>
        </g>
        <g transform="matrix(0.236712,0,0,0.236712,233.098,733.785)">
            <path d="M0,-494.234L-161.623,-226.543C-166.24,-218.896 -172.849,-212.648 -180.741,-208.467L-737.893,86.651C-785.663,111.954 -833.432,52.995 -798.77,11.512L-440.772,-416.929C-435.895,-422.768 -429.73,-427.398 -422.763,-430.456L-77.178,-582.125C-22.346,-606.188 30.95,-545.495 0,-494.234" style="fill-rule:nonzero;"/>
        </g>
    </g>
</svg>
